<svg xmlns="http://www.w3.org/2000/svg" viewBox="0 0 600 400">
  <rect width="600" height="400" fill="#fff7ef"/>
  
  <!-- Field rows -->
  <g opacity="0.6">
    <rect x="50" y="100" width="500" height="60" rx="5" fill="#A4C639"/>
    <rect x="50" y="180" width="500" height="60" rx="5" fill="#A4C639"/>
    <rect x="50" y="260" width="500" height="60" rx="5" fill="#A4C639"/>
  </g>
  
  <!-- Plants -->
  <g opacity="0.8">
    <ellipse cx="150" cy="130" rx="15" ry="30" fill="#8B5E3C"/>
    <ellipse cx="250" cy="125" rx="18" ry="35" fill="#8B5E3C"/>
    <ellipse cx="350" cy="128" rx="16" ry="32" fill="#8B5E3C"/>
    <ellipse cx="450" cy="132" rx="17" ry="33" fill="#8B5E3C"/>
    
    <ellipse cx="180" cy="210" rx="16" ry="31" fill="#8B5E3C"/>
    <ellipse cx="280" cy="205" rx="19" ry="36" fill="#8B5E3C"/>
    <ellipse cx="380" cy="208" rx="17" ry="33" fill="#8B5E3C"/>
    <ellipse cx="480" cy="212" rx="18" ry="34" fill="#8B5E3C"/>
    
    <ellipse cx="150" cy="290" rx="15" ry="30" fill="#8B5E3C"/>
    <ellipse cx="250" cy="285" rx="18" ry="35" fill="#8B5E3C"/>
    <ellipse cx="350" cy="288" rx="16" ry="32" fill="#8B5E3C"/>
    <ellipse cx="450" cy="292" rx="17" ry="33" fill="#8B5E3C"/>
  </g>
  
  <!-- Sky -->
  <rect x="0" y="0" width="600" height="80" fill="#E9B949" opacity="0.2"/>
  
  <text x="300" y="370" font-family="Arial" font-size="14" fill="#8B5E3C" text-anchor="middle">
    Cánh đồng nghệ Quảng Nam
  </text>
</svg>
